<?xml version="1.0" encoding="UTF-8"?>
<svg xmlns="http://www.w3.org/2000/svg"
     viewBox="0 0 393 386"
     width="500" height="500">
<g transform="translate(0.000000,386.000000) scale(0.100000,-0.100000)" fill="#E8A84E" stroke="none">
    <path d="M1810 3774 c-812 -96 -1452 -682 -1612 -1476 -19 -95 -23 -145 -23
-313 0 -226 17 -340 80 -530 34 -106 125 -305 173 -379 191 -297 434 -538 705
-697 168 -99 341 -167 537 -211 94 -20 130 -23 335 -23 218 0 236 2 350 29
469 111 888 407 1169 826 70 104 185 337 220 444 97 297 112 637 41 939 -80
343 -293 695 -565 935 -256 226 -542 365 -900 437 -73 15 -432 28 -510 19z
m503 -88 c519 -97 965 -413 1223 -868 147 -258 211 -485 221 -784 6 -188 -2
-275 -43 -439 -31 -124 -42 -157 -93 -275 -116 -269 -338 -552 -583 -743 -708
-551 -1600 -488 -2252 159 -299 297 -488 671 -535 1059 -75 625 232 1266 780
1627 219 144 505 249 769 282 80 10 428 -3 513 -18z"/>
    <path d="M1885 3639 c-388 -21 -766 -189 -1057 -468 -255 -244 -415 -530 -490
-873 -19 -89 -22 -132 -22 -318 0 -183 3 -229 22 -312 150 -676 714 -1236
1377 -1368 522 -104 1070 85 1480 511 288 300 459 659 496 1045 36 367 -86
780 -325 1100 -223 301 -539 520 -897 622 -191 55 -360 73 -584 61z m400 -89
c468 -82 879 -368 1123 -782 65 -111 96 -179 138 -303 129 -389 103 -776 -80
-1150 -238 -485 -676 -837 -1178 -946 -148 -32 -420 -33 -563 -1 -156 34 -249
67 -390 137 -289 144 -530 365 -712 654 -295 466 -326 1005 -88 1496 210 432
587 744 1048 864 242 64 458 73 702 31z"/>
    <path d="M1973 3418 c-4 -7 -21 -47 -38 -88 -45 -110 -98 -200 -175 -297 -40
-49 -66 -91 -63 -99 5 -14 23 -20 71 -26 22 -3 20 -8 -41 -93 -36 -49 -84
-109 -107 -133 -28 -29 -40 -50 -38 -65 3 -19 10 -22 56 -25 28 -2 52 -5 52
-7 0 -24 -109 -176 -199 -278 -28 -32 -51 -62 -51 -66 0 -18 28 -30 79 -33
l52 -3 -49 -70 c-28 -38 -82 -101 -121 -140 -117 -115 -102 -130 123 -129 157
0 201 6 353 50 22 6 23 4 17 -42 -15 -140 -12 -132 -47 -139 -18 -4 -70 -25
-117 -47 -112 -51 -145 -58 -238 -46 -104 13 -179 -2 -294 -57 -61 -29 -114
-48 -153 -53 -50 -6 -60 -10 -63 -28 -9 -63 103 -53 255 23 l97 48 150 -3 151
-2 82 39 c166 80 256 93 454 63 74 -11 177 -25 231 -30 81 -7 109 -15 180 -49
45 -22 107 -48 136 -58 33 -10 76 -37 113 -69 85 -72 120 -88 205 -94 64 -4
75 -2 80 13 11 27 -9 50 -47 53 -106 7 -116 12 -187 75 -53 48 -86 68 -138 86
-38 13 -94 37 -124 52 -89 45 -108 50 -263 65 -82 8 -168 19 -192 25 -39 10
-43 14 -49 47 -3 21 -6 59 -6 86 0 42 2 47 18 41 84 -32 196 -49 337 -49 244
-1 253 8 132 133 -46 47 -103 114 -126 149 l-42 62 60 0 c51 0 61 3 66 20 5
16 -8 37 -57 93 -69 78 -118 145 -162 220 l-28 47 49 0 c46 0 73 12 73 33 0 4
-22 32 -49 60 -52 55 -161 203 -161 218 0 5 16 9 35 9 24 0 37 6 45 20 9 16 0
31 -54 98 -79 99 -136 193 -177 297 -36 92 -45 105 -70 105 -10 0 -21 -6 -26
-12z m161 -358 c45 -64 45 -65 21 -68 -14 -2 -27 -12 -30 -23 -9 -27 44 -129
112 -221 29 -38 53 -71 53 -73 0 -2 -15 -5 -32 -7 -25 -2 -34 -8 -36 -25 -5
-33 64 -163 141 -265 37 -49 67 -92 67 -94 0 -2 -17 -2 -38 2 -57 9 -70 -12
-43 -69 34 -70 80 -137 148 -213 l63 -72 -47 -4 c-97 -7 -221 12 -400 64 -34
10 -44 9 -59 -2 -14 -13 -16 -29 -12 -127 l5 -113 -46 0 -46 0 0 123 0 122
-30 -1 c-16 -1 -76 -13 -131 -28 -111 -28 -245 -45 -312 -38 l-42 4 57 62 c98
104 181 244 167 281 -6 15 -16 16 -57 11 l-51 -5 36 37 c46 48 134 180 165
248 32 70 28 97 -15 104 l-32 5 55 74 c67 88 117 184 113 214 -2 16 -11 23
-31 25 l-27 3 44 62 c24 34 65 104 91 155 l47 94 43 -89 c23 -48 63 -117 89
-153z"/>
    <path d="M2682 1438 c-6 -9 -7 -53 -1 -123 4 -60 4 -114 0 -118 -4 -4 -52 -6
-107 -5 l-99 3 -16 95 c-18 107 -25 126 -45 134 -21 8 -44 -4 -44 -23 0 -9 7
-68 16 -131 9 -69 14 -163 12 -235 l-3 -120 26 -3 c33 -4 45 26 55 133 l7 73
101 1 c68 0 103 -4 108 -12 4 -7 8 -56 8 -110 0 -94 1 -98 25 -109 19 -8 28
-8 41 2 13 12 15 32 13 126 -2 62 0 116 4 120 12 12 8 41 -7 53 -9 8 -15 45
-18 123 -4 93 -8 113 -23 124 -23 17 -40 18 -53 2z"/>
    <path d="M1453 1419 c-6 -20 -11 -21 -107 -18 -99 4 -101 3 -104 -19 -5 -33
48 -52 149 -52 l82 0 -7 -97 c-12 -193 -59 -293 -135 -293 -29 0 -43 8 -82 50
-47 51 -82 63 -93 34 -3 -9 -6 -17 -6 -18 0 -2 15 -22 33 -44 91 -115 185
-128 265 -37 55 63 83 158 90 301 5 129 0 124 114 124 58 0 67 3 73 20 13 42
-11 53 -112 48 -69 -3 -94 -1 -97 9 -9 22 -57 16 -63 -8z"/>
    <path d="M1813 1394 c-3 -9 -1 -24 5 -33 24 -32 25 -45 16 -189 -9 -145 -9
-146 -34 -152 -16 -4 -26 -14 -28 -28 -5 -36 72 -66 173 -65 66 0 90 5 137 27
91 43 147 127 148 219 0 127 -82 192 -278 222 -127 19 -131 19 -139 -1z m268
-99 c46 -25 79 -72 79 -116 0 -95 -76 -168 -192 -184 -70 -9 -71 -7 -59 146 6
73 11 145 11 159 l0 27 67 -9 c36 -5 79 -16 94 -23z"/>
    <path d="M1170 808 c0 -8 11 -45 23 -84 19 -54 28 -70 45 -72 18 -3 24 4 34
42 7 25 15 46 19 46 3 0 12 -20 19 -46 10 -36 17 -44 33 -42 15 2 26 20 44 72
27 83 29 99 6 94 -9 -2 -23 -24 -33 -53 -11 -30 -20 -44 -23 -35 -3 8 -11 32
-17 53 -19 62 -39 49 -74 -48 -6 -16 -11 -11 -24 30 -11 31 -24 51 -34 53 -10
2 -18 -3 -18 -10z"/>
    <path d="M1450 792 c-54 -55 -30 -129 46 -139 56 -7 94 24 94 77 0 49 -25 79
-72 87 -32 5 -41 1 -68 -25z m88 -24 c7 -7 12 -25 12 -40 0 -51 -81 -50 -88 1
-7 42 46 69 76 39z"/>
    <path d="M1655 808 c-53 -31 -61 -94 -17 -134 22 -22 34 -25 67 -21 77 11 103
92 44 141 -33 28 -62 32 -94 14z m73 -40 c7 -7 12 -21 12 -33 0 -12 -5 -26
-12 -33 -7 -7 -21 -12 -33 -12 -12 0 -26 5 -33 12 -7 7 -12 21 -12 33 0 12 5
26 12 33 7 7 21 12 33 12 12 0 26 -5 33 -12z"/>
    <path d="M1804 807 c-3 -8 -4 -45 -2 -83 l3 -69 34 -3 c45 -5 77 4 101 28 23
23 26 76 6 103 -25 33 -131 50 -142 24z m100 -43 c33 -32 13 -74 -36 -74 -27
0 -28 2 -28 45 0 41 2 45 24 45 14 0 32 -7 40 -16z"/>
    <path d="M1975 789 c18 -83 42 -134 63 -137 18 -3 23 4 33 42 13 53 24 51 39
-5 22 -80 65 -34 95 100 6 29 5 32 -12 29 -12 -2 -23 -20 -34 -53 -17 -53 -21
-52 -38 13 -7 26 -18 42 -27 42 -13 0 -22 -14 -49 -85 -6 -17 -10 -11 -24 30
-10 33 -22 51 -34 53 -17 3 -18 0 -12 -29z"/>
    <path d="M2265 808 c-31 -18 -44 -40 -45 -74 0 -45 27 -74 77 -81 35 -5 45 -2
67 20 42 42 35 107 -15 132 -33 18 -57 18 -84 3z m78 -49 c5 -9 7 -28 3 -43
-6 -23 -11 -27 -38 -24 -41 4 -56 28 -40 63 9 20 18 26 39 23 14 -2 30 -10 36
-19z"/>
    <path d="M2418 815 c-6 -6 0 -156 7 -163 10 -10 35 9 35 28 0 27 18 25 42 -5
23 -29 54 -35 43 -7 -9 19 -8 29 1 83 4 25 1 39 -10 48 -16 13 -108 26 -118
16z m87 -60 c0 -13 -8 -21 -22 -23 -19 -3 -23 1 -23 23 0 22 4 26 23 23 14 -2
22 -10 22 -23z"/>
    <path d="M2580 734 c0 -77 2 -84 20 -84 15 0 20 7 20 24 0 37 15 39 43 6 14
-16 35 -30 46 -30 28 0 27 4 -10 50 l-32 39 27 35 c30 40 32 46 11 46 -8 0
-30 -16 -49 -36 l-35 -37 -3 33 c-2 22 -9 34 -20 36 -16 2 -18 -7 -18 -82z"/>
    <path d="M2764 810 c-24 -10 -35 -40 -23 -63 5 -8 25 -21 44 -27 48 -16 45
-34 -4 -27 -44 6 -64 -15 -31 -33 52 -28 114 -2 108 45 -2 22 -10 31 -37 40
-49 16 -55 40 -8 32 25 -4 37 -1 41 9 10 27 -46 42 -90 24z"/>
  </g>
</svg>